<svg width="18" height="22" viewBox="0 0 18 22" fill="none" xmlns="http://www.w3.org/2000/svg">
<path d="M14.2676 11.7223C14.2578 10.0572 15.0122 8.80234 16.5356 7.87704C15.6836 6.65634 14.3945 5.98495 12.6953 5.85556C11.0864 5.72861 9.32617 6.79306 8.68164 6.79306C8.00049 6.79306 6.44287 5.89951 5.21729 5.89951C2.68799 5.93857 0 7.91611 0 11.9395C0 13.1285 0.217285 14.3565 0.651855 15.6212C1.23291 17.2862 3.32764 21.3658 5.51269 21.2999C6.65527 21.273 7.46338 20.4893 8.95019 20.4893C10.3931 20.4893 11.1401 21.2999 12.4146 21.2999C14.6191 21.2682 16.5137 17.5597 17.0654 15.8897C14.1089 14.4957 14.2676 11.8077 14.2676 11.7223ZM11.7017 4.27597C12.9395 2.80624 12.8271 1.46835 12.7905 0.987396C11.6968 1.05087 10.4321 1.73203 9.71191 2.56943C8.91846 3.46786 8.45215 4.5787 8.55225 5.83115C9.73389 5.92148 10.813 5.31357 11.7017 4.27597Z" fill="#1A1A1A"/>
</svg>
